<?xml version="1.0" encoding="UTF-8"?>
<svg id="Layer_2" data-name="Layer 2" xmlns="http://www.w3.org/2000/svg" viewBox="0 0 80.41 81.29">
  <defs>
    <style>
      .cls-1 {
        fill: #f5e85f;
        stroke-width: 0px;
      }
    </style>
  </defs>
  <g id="Layer_1-2" data-name="Layer 1">
    <g>
      <path class="cls-1" d="M44.24,46.89h-14.58v16.22h-9.3V0h9.3v38.16h14.61c8.12-.01,16.41-9.08,16.41-21.23V0h9.3v16.93c0,7.12-1.76,13.78-5.27,19.14-1.28,1.96-2.75,3.67-4.35,5.13,1.6,1.46,3.06,3.17,4.35,5.13,3.52,5.36,5.27,12.02,5.27,19.14v15.82h-9.3v-15.82c0-12.15-8.29-18.57-16.41-18.58h-.03Z"/>
      <path class="cls-1" d="M9.2,21.3v35.05h47.3s.63.85,1.24,3.05c.67,2.42.74,5.19.74,5.19H0V21.3h9.2Z"/>
      <rect class="cls-1" x="20.36" y="66.8" width="9.37" height="14.48"/>
      <path class="cls-1" d="M80.41,56.32v8.28h-11.22c-.02-1.24-.1-2.62-.28-4.11-.19-1.57-.47-2.99-.77-4.25,3.48.03,8.8.05,12.28.08Z"/>
    </g>
  </g>
</svg>