<?xml version="1.0" encoding="UTF-8"?>
<svg id="Layer_2" data-name="Layer 2" xmlns="http://www.w3.org/2000/svg" viewBox="0 0 417.37 96.25">
  <defs>
    <style>
      .cls-1 {
        fill: #f5e85f;
        stroke-width: 0px;
      }
    </style>
  </defs>
  <g id="Layer_1-2" data-name="Layer 1">
    <g>
      <path class="cls-1" d="M44.24,52.07h-14.58v16.22h-9.3V5.18h9.3v38.16h14.61c8.12-.01,16.41-9.08,16.41-21.23V5.18h9.3v16.93c0,7.12-1.76,13.78-5.27,19.14-1.28,1.96-2.75,3.67-4.35,5.13,1.6,1.46,3.06,3.17,4.35,5.13,3.52,5.36,5.27,12.02,5.27,19.14v15.82h-9.3v-15.82c0-12.15-8.29-18.57-16.41-18.58h-.03Z"/>
      <path class="cls-1" d="M9.2,26.48v35.05h47.3s.63.85,1.24,3.05c.67,2.42.74,5.19.74,5.19H0V26.48h9.2Z"/>
      <rect class="cls-1" x="20.36" y="71.98" width="9.37" height="14.48"/>
      <path class="cls-1" d="M80.41,61.5v8.28h-11.22c-.02-1.24-.1-2.62-.28-4.11-.19-1.57-.47-2.99-.77-4.25,3.48.03,8.8.05,12.28.08Z"/>
    </g>
    <g>
      <path class="cls-1" d="M133.95,4.17v25.31h23.2v4.9h-28.7V4.17h5.5Z"/>
      <path class="cls-1" d="M188.17,9.32h6.02l-15.38,27.37c-3.09,5.59-6.1,8.85-12.2,8.85-3.31,0-5.63-.39-8.21-.86v-4.68c3.09.64,5.33.82,7.22.82,3.57,0,5.63-1.29,7.95-5.5l.52-.95h-3.05l-14.14-25.05h6.14l12.59,22.3,12.55-22.3Z"/>
      <path class="cls-1" d="M229.77,0h5.37v34.38h-5.37v-4.34c-2.54,3.31-7.05,5.2-13.45,5.2-8.94,0-15.99-4.3-15.99-13.36s7.05-13.41,15.99-13.41c6.4,0,10.91,1.89,13.45,5.2V0ZM229.77,21.87c0-5.29-4.34-8.59-11.99-8.59s-11.64,3.31-11.64,8.59,3.95,8.59,11.64,8.59,11.99-3.31,11.99-8.59Z"/>
      <path class="cls-1" d="M165.01,55.73l-17.4,13.62,17.4,16.59h-7.78l-13.88-13.24-9.41,7.35v5.89h-5.5v-30.21h5.5v17.49l22.34-17.49h8.72Z"/>
      <path class="cls-1" d="M170.38,73.44c0-9.07,7.26-13.41,17.66-13.41s17.62,4.34,17.62,13.41-7.26,13.36-17.62,13.36-17.66-4.34-17.66-13.36ZM199.86,73.44c0-5.84-4.13-8.68-11.82-8.68s-11.86,2.84-11.86,8.68,4.13,8.64,11.86,8.64,11.82-2.84,11.82-8.64Z"/>
      <path class="cls-1" d="M216.06,85.94v-25.05h5.37v5.59c3.18-4.08,7.86-6.45,14.91-6.45,8.81,0,14.44,3.65,14.57,13.41v12.5h-5.37v-11.3c0-6.4-2.58-9.8-10.61-9.8s-13.49,3.61-13.49,11.13v9.97h-5.37Z"/>
      <path class="cls-1" d="M266.63,77.43c.39,3.44,3.57,4.81,12.81,4.81s10.57-1.12,10.57-3.57c0-2.32-1.42-2.66-11.77-3.44-10.61-.77-16.2-1.59-16.2-7.35,0-6.19,7.18-7.86,16.29-7.86s16.07,1.38,16.63,8.12h-5.8c-.39-2.96-3.48-3.61-11.43-3.61s-9.88,1.25-9.88,3.01,1.5,2.32,11.39,3.18c9.8.86,16.59.95,16.59,7.69s-6.19,8.38-15.94,8.38-18.65-1.38-19.04-9.37h5.8Z"/>
      <path class="cls-1" d="M333.24,77.65h5.8c-1.55,5.76-7.56,9.15-16.54,9.15-10.31,0-17.7-4.25-17.7-13.36s7.65-13.41,17.27-13.41,17.36,3.57,17.36,14.74h-28.79c.56,5.2,4.73,7.35,11.9,7.35,6.45,0,9.37-1.8,10.7-4.47ZM310.98,70.38h22.3c-1.12-4-4.94-5.76-11.22-5.76-5.89,0-9.84,1.72-11.09,5.76Z"/>
      <path class="cls-1" d="M384.63,73.44c0,9.07-7.05,13.36-15.99,13.36-6.45,0-10.91-1.93-13.45-5.2v14.65h-5.37v-35.36h5.37v4.38c2.54-3.31,7-5.24,13.45-5.24,8.94,0,15.99,4.3,15.99,13.41ZM378.83,73.44c0-5.29-4.3-8.59-11.99-8.59s-11.65,3.31-11.65,8.59,4.34,8.59,12.03,8.59,11.6-3.31,11.6-8.59Z"/>
      <path class="cls-1" d="M417.37,65.57h-12.76v9.67c0,5.46.95,6.79,6.19,6.79,1.93,0,3.61-.13,6.57-.52v4.6c-2.84.43-5.11.69-7.78.69-7.91,0-10.36-2.49-10.36-11.13v-10.1h-7.48v-4.68h7.48v-5.84l5.37-1.81v7.65h12.76v4.68Z"/>
    </g>
  </g>
</svg>